<mxfile host="app.diagrams.net" modified="2023-05-29T05:04:15.369Z" agent="Mozilla/5.0 (Windows NT 10.0; Win64; x64) AppleWebKit/537.36 (KHTML, like Gecko) Chrome/113.0.0.0 Safari/537.36" etag="QpVFDChPDMUPdNdh6kn_" version="21.3.5" type="device">
  <diagram name="Trang-1" id="s3CLVYI0F6EhYzhQMtWt">
    <mxGraphModel dx="1050" dy="549" grid="1" gridSize="10" guides="1" tooltips="1" connect="1" arrows="1" fold="1" page="1" pageScale="1" pageWidth="827" pageHeight="1169" math="0" shadow="0">
      <root>
        <mxCell id="0" />
        <mxCell id="1" parent="0" />
        <mxCell id="LW2ubo94huyheegszHK6-1" value="Nhà quản lý&amp;nbsp;" style="shape=umlActor;verticalLabelPosition=bottom;verticalAlign=top;html=1;outlineConnect=0;" parent="1" vertex="1">
          <mxGeometry x="210" y="160" width="30" height="60" as="geometry" />
        </mxCell>
        <mxCell id="LW2ubo94huyheegszHK6-4" value="" style="endArrow=none;html=1;rounded=0;" parent="1" edge="1">
          <mxGeometry width="50" height="50" relative="1" as="geometry">
            <mxPoint x="250" y="190" as="sourcePoint" />
            <mxPoint x="300" y="120" as="targetPoint" />
          </mxGeometry>
        </mxCell>
        <mxCell id="LW2ubo94huyheegszHK6-5" value="" style="endArrow=none;html=1;rounded=0;" parent="1" edge="1">
          <mxGeometry width="50" height="50" relative="1" as="geometry">
            <mxPoint x="250" y="190" as="sourcePoint" />
            <mxPoint x="300" y="260" as="targetPoint" />
          </mxGeometry>
        </mxCell>
        <mxCell id="LW2ubo94huyheegszHK6-6" value="" style="endArrow=none;html=1;rounded=0;" parent="1" edge="1">
          <mxGeometry width="50" height="50" relative="1" as="geometry">
            <mxPoint x="250" y="190" as="sourcePoint" />
            <mxPoint x="310" y="190" as="targetPoint" />
          </mxGeometry>
        </mxCell>
        <mxCell id="LW2ubo94huyheegszHK6-7" value="Đăng nhập" style="ellipse;whiteSpace=wrap;html=1;align=center;" parent="1" vertex="1">
          <mxGeometry x="314" y="90" width="100" height="40" as="geometry" />
        </mxCell>
        <mxCell id="LW2ubo94huyheegszHK6-8" value="Quản lý thông tin" style="ellipse;whiteSpace=wrap;html=1;align=center;" parent="1" vertex="1">
          <mxGeometry x="330" y="170" width="100" height="40" as="geometry" />
        </mxCell>
        <mxCell id="LW2ubo94huyheegszHK6-9" value="Trích xuất dự báo và báo cáo thống kê" style="ellipse;whiteSpace=wrap;html=1;align=center;" parent="1" vertex="1">
          <mxGeometry x="310" y="230" width="180" height="80" as="geometry" />
        </mxCell>
        <mxCell id="Vo_5b4HXLnKSAwfz7YPH-1" value="Features" style="shape=table;startSize=30;container=1;collapsible=1;childLayout=tableLayout;fixedRows=1;rowLines=0;fontStyle=1;align=center;resizeLast=1;html=1;fontSize=16;" parent="1" vertex="1">
          <mxGeometry x="620" y="580" width="180" height="270" as="geometry" />
        </mxCell>
        <mxCell id="Vo_5b4HXLnKSAwfz7YPH-2" value="" style="shape=tableRow;horizontal=0;startSize=0;swimlaneHead=0;swimlaneBody=0;fillColor=none;collapsible=0;dropTarget=0;points=[[0,0.5],[1,0.5]];portConstraint=eastwest;top=0;left=0;right=0;bottom=1;fontSize=16;" parent="Vo_5b4HXLnKSAwfz7YPH-1" vertex="1">
          <mxGeometry y="30" width="180" height="30" as="geometry" />
        </mxCell>
        <mxCell id="Vo_5b4HXLnKSAwfz7YPH-3" value="FK" style="shape=partialRectangle;connectable=0;fillColor=none;top=0;left=0;bottom=0;right=0;fontStyle=1;overflow=hidden;whiteSpace=wrap;html=1;fontSize=16;" parent="Vo_5b4HXLnKSAwfz7YPH-2" vertex="1">
          <mxGeometry width="30" height="30" as="geometry">
            <mxRectangle width="30" height="30" as="alternateBounds" />
          </mxGeometry>
        </mxCell>
        <mxCell id="Vo_5b4HXLnKSAwfz7YPH-4" value="StoreID" style="shape=partialRectangle;connectable=0;fillColor=none;top=0;left=0;bottom=0;right=0;align=left;spacingLeft=6;fontStyle=5;overflow=hidden;whiteSpace=wrap;html=1;fontSize=16;" parent="Vo_5b4HXLnKSAwfz7YPH-2" vertex="1">
          <mxGeometry x="30" width="150" height="30" as="geometry">
            <mxRectangle width="150" height="30" as="alternateBounds" />
          </mxGeometry>
        </mxCell>
        <mxCell id="Vo_5b4HXLnKSAwfz7YPH-5" value="" style="shape=tableRow;horizontal=0;startSize=0;swimlaneHead=0;swimlaneBody=0;fillColor=none;collapsible=0;dropTarget=0;points=[[0,0.5],[1,0.5]];portConstraint=eastwest;top=0;left=0;right=0;bottom=0;fontSize=16;" parent="Vo_5b4HXLnKSAwfz7YPH-1" vertex="1">
          <mxGeometry y="60" width="180" height="30" as="geometry" />
        </mxCell>
        <mxCell id="Vo_5b4HXLnKSAwfz7YPH-6" value="" style="shape=partialRectangle;connectable=0;fillColor=none;top=0;left=0;bottom=0;right=0;editable=1;overflow=hidden;whiteSpace=wrap;html=1;fontSize=16;" parent="Vo_5b4HXLnKSAwfz7YPH-5" vertex="1">
          <mxGeometry width="30" height="30" as="geometry">
            <mxRectangle width="30" height="30" as="alternateBounds" />
          </mxGeometry>
        </mxCell>
        <mxCell id="Vo_5b4HXLnKSAwfz7YPH-7" value="Date" style="shape=partialRectangle;connectable=0;fillColor=none;top=0;left=0;bottom=0;right=0;align=left;spacingLeft=6;overflow=hidden;whiteSpace=wrap;html=1;fontSize=16;" parent="Vo_5b4HXLnKSAwfz7YPH-5" vertex="1">
          <mxGeometry x="30" width="150" height="30" as="geometry">
            <mxRectangle width="150" height="30" as="alternateBounds" />
          </mxGeometry>
        </mxCell>
        <mxCell id="Vo_5b4HXLnKSAwfz7YPH-8" value="" style="shape=tableRow;horizontal=0;startSize=0;swimlaneHead=0;swimlaneBody=0;fillColor=none;collapsible=0;dropTarget=0;points=[[0,0.5],[1,0.5]];portConstraint=eastwest;top=0;left=0;right=0;bottom=0;fontSize=16;" parent="Vo_5b4HXLnKSAwfz7YPH-1" vertex="1">
          <mxGeometry y="90" width="180" height="30" as="geometry" />
        </mxCell>
        <mxCell id="Vo_5b4HXLnKSAwfz7YPH-9" value="" style="shape=partialRectangle;connectable=0;fillColor=none;top=0;left=0;bottom=0;right=0;editable=1;overflow=hidden;whiteSpace=wrap;html=1;fontSize=16;" parent="Vo_5b4HXLnKSAwfz7YPH-8" vertex="1">
          <mxGeometry width="30" height="30" as="geometry">
            <mxRectangle width="30" height="30" as="alternateBounds" />
          </mxGeometry>
        </mxCell>
        <mxCell id="Vo_5b4HXLnKSAwfz7YPH-10" value="Temperature" style="shape=partialRectangle;connectable=0;fillColor=none;top=0;left=0;bottom=0;right=0;align=left;spacingLeft=6;overflow=hidden;whiteSpace=wrap;html=1;fontSize=16;" parent="Vo_5b4HXLnKSAwfz7YPH-8" vertex="1">
          <mxGeometry x="30" width="150" height="30" as="geometry">
            <mxRectangle width="150" height="30" as="alternateBounds" />
          </mxGeometry>
        </mxCell>
        <mxCell id="Vo_5b4HXLnKSAwfz7YPH-11" value="" style="shape=tableRow;horizontal=0;startSize=0;swimlaneHead=0;swimlaneBody=0;fillColor=none;collapsible=0;dropTarget=0;points=[[0,0.5],[1,0.5]];portConstraint=eastwest;top=0;left=0;right=0;bottom=0;fontSize=16;" parent="Vo_5b4HXLnKSAwfz7YPH-1" vertex="1">
          <mxGeometry y="120" width="180" height="30" as="geometry" />
        </mxCell>
        <mxCell id="Vo_5b4HXLnKSAwfz7YPH-12" value="" style="shape=partialRectangle;connectable=0;fillColor=none;top=0;left=0;bottom=0;right=0;editable=1;overflow=hidden;whiteSpace=wrap;html=1;fontSize=16;" parent="Vo_5b4HXLnKSAwfz7YPH-11" vertex="1">
          <mxGeometry width="30" height="30" as="geometry">
            <mxRectangle width="30" height="30" as="alternateBounds" />
          </mxGeometry>
        </mxCell>
        <mxCell id="Vo_5b4HXLnKSAwfz7YPH-13" value="Fule_Price" style="shape=partialRectangle;connectable=0;fillColor=none;top=0;left=0;bottom=0;right=0;align=left;spacingLeft=6;overflow=hidden;whiteSpace=wrap;html=1;fontSize=16;" parent="Vo_5b4HXLnKSAwfz7YPH-11" vertex="1">
          <mxGeometry x="30" width="150" height="30" as="geometry">
            <mxRectangle width="150" height="30" as="alternateBounds" />
          </mxGeometry>
        </mxCell>
        <mxCell id="Vo_5b4HXLnKSAwfz7YPH-50" value="" style="shape=tableRow;horizontal=0;startSize=0;swimlaneHead=0;swimlaneBody=0;fillColor=none;collapsible=0;dropTarget=0;points=[[0,0.5],[1,0.5]];portConstraint=eastwest;top=0;left=0;right=0;bottom=0;fontSize=16;" parent="Vo_5b4HXLnKSAwfz7YPH-1" vertex="1">
          <mxGeometry y="150" width="180" height="30" as="geometry" />
        </mxCell>
        <mxCell id="Vo_5b4HXLnKSAwfz7YPH-51" value="" style="shape=partialRectangle;connectable=0;fillColor=none;top=0;left=0;bottom=0;right=0;editable=1;overflow=hidden;whiteSpace=wrap;html=1;fontSize=16;" parent="Vo_5b4HXLnKSAwfz7YPH-50" vertex="1">
          <mxGeometry width="30" height="30" as="geometry">
            <mxRectangle width="30" height="30" as="alternateBounds" />
          </mxGeometry>
        </mxCell>
        <mxCell id="Vo_5b4HXLnKSAwfz7YPH-52" value="Mark_Down 1-5" style="shape=partialRectangle;connectable=0;fillColor=none;top=0;left=0;bottom=0;right=0;align=left;spacingLeft=6;overflow=hidden;whiteSpace=wrap;html=1;fontSize=16;" parent="Vo_5b4HXLnKSAwfz7YPH-50" vertex="1">
          <mxGeometry x="30" width="150" height="30" as="geometry">
            <mxRectangle width="150" height="30" as="alternateBounds" />
          </mxGeometry>
        </mxCell>
        <mxCell id="Vo_5b4HXLnKSAwfz7YPH-53" value="" style="shape=tableRow;horizontal=0;startSize=0;swimlaneHead=0;swimlaneBody=0;fillColor=none;collapsible=0;dropTarget=0;points=[[0,0.5],[1,0.5]];portConstraint=eastwest;top=0;left=0;right=0;bottom=0;fontSize=16;" parent="Vo_5b4HXLnKSAwfz7YPH-1" vertex="1">
          <mxGeometry y="180" width="180" height="30" as="geometry" />
        </mxCell>
        <mxCell id="Vo_5b4HXLnKSAwfz7YPH-54" value="" style="shape=partialRectangle;connectable=0;fillColor=none;top=0;left=0;bottom=0;right=0;editable=1;overflow=hidden;whiteSpace=wrap;html=1;fontSize=16;" parent="Vo_5b4HXLnKSAwfz7YPH-53" vertex="1">
          <mxGeometry width="30" height="30" as="geometry">
            <mxRectangle width="30" height="30" as="alternateBounds" />
          </mxGeometry>
        </mxCell>
        <mxCell id="Vo_5b4HXLnKSAwfz7YPH-55" value="CPI" style="shape=partialRectangle;connectable=0;fillColor=none;top=0;left=0;bottom=0;right=0;align=left;spacingLeft=6;overflow=hidden;whiteSpace=wrap;html=1;fontSize=16;" parent="Vo_5b4HXLnKSAwfz7YPH-53" vertex="1">
          <mxGeometry x="30" width="150" height="30" as="geometry">
            <mxRectangle width="150" height="30" as="alternateBounds" />
          </mxGeometry>
        </mxCell>
        <mxCell id="Vo_5b4HXLnKSAwfz7YPH-56" value="" style="shape=tableRow;horizontal=0;startSize=0;swimlaneHead=0;swimlaneBody=0;fillColor=none;collapsible=0;dropTarget=0;points=[[0,0.5],[1,0.5]];portConstraint=eastwest;top=0;left=0;right=0;bottom=0;fontSize=16;" parent="Vo_5b4HXLnKSAwfz7YPH-1" vertex="1">
          <mxGeometry y="210" width="180" height="30" as="geometry" />
        </mxCell>
        <mxCell id="Vo_5b4HXLnKSAwfz7YPH-57" value="" style="shape=partialRectangle;connectable=0;fillColor=none;top=0;left=0;bottom=0;right=0;editable=1;overflow=hidden;whiteSpace=wrap;html=1;fontSize=16;" parent="Vo_5b4HXLnKSAwfz7YPH-56" vertex="1">
          <mxGeometry width="30" height="30" as="geometry">
            <mxRectangle width="30" height="30" as="alternateBounds" />
          </mxGeometry>
        </mxCell>
        <mxCell id="Vo_5b4HXLnKSAwfz7YPH-58" value="Unemployment" style="shape=partialRectangle;connectable=0;fillColor=none;top=0;left=0;bottom=0;right=0;align=left;spacingLeft=6;overflow=hidden;whiteSpace=wrap;html=1;fontSize=16;" parent="Vo_5b4HXLnKSAwfz7YPH-56" vertex="1">
          <mxGeometry x="30" width="150" height="30" as="geometry">
            <mxRectangle width="150" height="30" as="alternateBounds" />
          </mxGeometry>
        </mxCell>
        <mxCell id="Vo_5b4HXLnKSAwfz7YPH-59" value="" style="shape=tableRow;horizontal=0;startSize=0;swimlaneHead=0;swimlaneBody=0;fillColor=none;collapsible=0;dropTarget=0;points=[[0,0.5],[1,0.5]];portConstraint=eastwest;top=0;left=0;right=0;bottom=0;fontSize=16;" parent="Vo_5b4HXLnKSAwfz7YPH-1" vertex="1">
          <mxGeometry y="240" width="180" height="30" as="geometry" />
        </mxCell>
        <mxCell id="Vo_5b4HXLnKSAwfz7YPH-60" value="" style="shape=partialRectangle;connectable=0;fillColor=none;top=0;left=0;bottom=0;right=0;editable=1;overflow=hidden;whiteSpace=wrap;html=1;fontSize=16;" parent="Vo_5b4HXLnKSAwfz7YPH-59" vertex="1">
          <mxGeometry width="30" height="30" as="geometry">
            <mxRectangle width="30" height="30" as="alternateBounds" />
          </mxGeometry>
        </mxCell>
        <mxCell id="Vo_5b4HXLnKSAwfz7YPH-61" value="IsHoliday" style="shape=partialRectangle;connectable=0;fillColor=none;top=0;left=0;bottom=0;right=0;align=left;spacingLeft=6;overflow=hidden;whiteSpace=wrap;html=1;fontSize=16;" parent="Vo_5b4HXLnKSAwfz7YPH-59" vertex="1">
          <mxGeometry x="30" width="150" height="30" as="geometry">
            <mxRectangle width="150" height="30" as="alternateBounds" />
          </mxGeometry>
        </mxCell>
        <mxCell id="Vo_5b4HXLnKSAwfz7YPH-14" value="Sales" style="shape=table;startSize=30;container=1;collapsible=1;childLayout=tableLayout;fixedRows=1;rowLines=0;fontStyle=1;align=center;resizeLast=1;html=1;fontSize=16;" parent="1" vertex="1">
          <mxGeometry x="54" y="690" width="180" height="185" as="geometry" />
        </mxCell>
        <mxCell id="Vo_5b4HXLnKSAwfz7YPH-18" value="" style="shape=tableRow;horizontal=0;startSize=0;swimlaneHead=0;swimlaneBody=0;fillColor=none;collapsible=0;dropTarget=0;points=[[0,0.5],[1,0.5]];portConstraint=eastwest;top=0;left=0;right=0;bottom=0;fontSize=16;" parent="Vo_5b4HXLnKSAwfz7YPH-14" vertex="1">
          <mxGeometry y="30" width="180" height="30" as="geometry" />
        </mxCell>
        <mxCell id="Vo_5b4HXLnKSAwfz7YPH-19" value="FK" style="shape=partialRectangle;connectable=0;fillColor=none;top=0;left=0;bottom=0;right=0;editable=1;overflow=hidden;whiteSpace=wrap;html=1;fontSize=16;" parent="Vo_5b4HXLnKSAwfz7YPH-18" vertex="1">
          <mxGeometry width="30" height="30" as="geometry">
            <mxRectangle width="30" height="30" as="alternateBounds" />
          </mxGeometry>
        </mxCell>
        <mxCell id="Vo_5b4HXLnKSAwfz7YPH-20" value="Store_ID" style="shape=partialRectangle;connectable=0;fillColor=none;top=0;left=0;bottom=0;right=0;align=left;spacingLeft=6;overflow=hidden;whiteSpace=wrap;html=1;fontSize=16;" parent="Vo_5b4HXLnKSAwfz7YPH-18" vertex="1">
          <mxGeometry x="30" width="150" height="30" as="geometry">
            <mxRectangle width="150" height="30" as="alternateBounds" />
          </mxGeometry>
        </mxCell>
        <mxCell id="Vo_5b4HXLnKSAwfz7YPH-21" value="" style="shape=tableRow;horizontal=0;startSize=0;swimlaneHead=0;swimlaneBody=0;fillColor=none;collapsible=0;dropTarget=0;points=[[0,0.5],[1,0.5]];portConstraint=eastwest;top=0;left=0;right=0;bottom=0;fontSize=16;" parent="Vo_5b4HXLnKSAwfz7YPH-14" vertex="1">
          <mxGeometry y="60" width="180" height="35" as="geometry" />
        </mxCell>
        <mxCell id="Vo_5b4HXLnKSAwfz7YPH-22" value="" style="shape=partialRectangle;connectable=0;fillColor=none;top=0;left=0;bottom=0;right=0;editable=1;overflow=hidden;whiteSpace=wrap;html=1;fontSize=16;" parent="Vo_5b4HXLnKSAwfz7YPH-21" vertex="1">
          <mxGeometry width="30" height="35" as="geometry">
            <mxRectangle width="30" height="35" as="alternateBounds" />
          </mxGeometry>
        </mxCell>
        <mxCell id="Vo_5b4HXLnKSAwfz7YPH-23" value="Dept" style="shape=partialRectangle;connectable=0;fillColor=none;top=0;left=0;bottom=0;right=0;align=left;spacingLeft=6;overflow=hidden;whiteSpace=wrap;html=1;fontSize=16;" parent="Vo_5b4HXLnKSAwfz7YPH-21" vertex="1">
          <mxGeometry x="30" width="150" height="35" as="geometry">
            <mxRectangle width="150" height="35" as="alternateBounds" />
          </mxGeometry>
        </mxCell>
        <mxCell id="Vo_5b4HXLnKSAwfz7YPH-24" value="" style="shape=tableRow;horizontal=0;startSize=0;swimlaneHead=0;swimlaneBody=0;fillColor=none;collapsible=0;dropTarget=0;points=[[0,0.5],[1,0.5]];portConstraint=eastwest;top=0;left=0;right=0;bottom=0;fontSize=16;" parent="Vo_5b4HXLnKSAwfz7YPH-14" vertex="1">
          <mxGeometry y="95" width="180" height="30" as="geometry" />
        </mxCell>
        <mxCell id="Vo_5b4HXLnKSAwfz7YPH-25" value="" style="shape=partialRectangle;connectable=0;fillColor=none;top=0;left=0;bottom=0;right=0;editable=1;overflow=hidden;whiteSpace=wrap;html=1;fontSize=16;" parent="Vo_5b4HXLnKSAwfz7YPH-24" vertex="1">
          <mxGeometry width="30" height="30" as="geometry">
            <mxRectangle width="30" height="30" as="alternateBounds" />
          </mxGeometry>
        </mxCell>
        <mxCell id="Vo_5b4HXLnKSAwfz7YPH-26" value="Date" style="shape=partialRectangle;connectable=0;fillColor=none;top=0;left=0;bottom=0;right=0;align=left;spacingLeft=6;overflow=hidden;whiteSpace=wrap;html=1;fontSize=16;" parent="Vo_5b4HXLnKSAwfz7YPH-24" vertex="1">
          <mxGeometry x="30" width="150" height="30" as="geometry">
            <mxRectangle width="150" height="30" as="alternateBounds" />
          </mxGeometry>
        </mxCell>
        <mxCell id="Vo_5b4HXLnKSAwfz7YPH-40" value="" style="shape=tableRow;horizontal=0;startSize=0;swimlaneHead=0;swimlaneBody=0;fillColor=none;collapsible=0;dropTarget=0;points=[[0,0.5],[1,0.5]];portConstraint=eastwest;top=0;left=0;right=0;bottom=0;fontSize=16;" parent="Vo_5b4HXLnKSAwfz7YPH-14" vertex="1">
          <mxGeometry y="125" width="180" height="30" as="geometry" />
        </mxCell>
        <mxCell id="Vo_5b4HXLnKSAwfz7YPH-41" value="" style="shape=partialRectangle;connectable=0;fillColor=none;top=0;left=0;bottom=0;right=0;editable=1;overflow=hidden;whiteSpace=wrap;html=1;fontSize=16;" parent="Vo_5b4HXLnKSAwfz7YPH-40" vertex="1">
          <mxGeometry width="30" height="30" as="geometry">
            <mxRectangle width="30" height="30" as="alternateBounds" />
          </mxGeometry>
        </mxCell>
        <mxCell id="Vo_5b4HXLnKSAwfz7YPH-42" value="Weekly_Sales" style="shape=partialRectangle;connectable=0;fillColor=none;top=0;left=0;bottom=0;right=0;align=left;spacingLeft=6;overflow=hidden;whiteSpace=wrap;html=1;fontSize=16;" parent="Vo_5b4HXLnKSAwfz7YPH-40" vertex="1">
          <mxGeometry x="30" width="150" height="30" as="geometry">
            <mxRectangle width="150" height="30" as="alternateBounds" />
          </mxGeometry>
        </mxCell>
        <mxCell id="Vo_5b4HXLnKSAwfz7YPH-43" value="" style="shape=tableRow;horizontal=0;startSize=0;swimlaneHead=0;swimlaneBody=0;fillColor=none;collapsible=0;dropTarget=0;points=[[0,0.5],[1,0.5]];portConstraint=eastwest;top=0;left=0;right=0;bottom=0;fontSize=16;" parent="Vo_5b4HXLnKSAwfz7YPH-14" vertex="1">
          <mxGeometry y="155" width="180" height="30" as="geometry" />
        </mxCell>
        <mxCell id="Vo_5b4HXLnKSAwfz7YPH-44" value="" style="shape=partialRectangle;connectable=0;fillColor=none;top=0;left=0;bottom=0;right=0;editable=1;overflow=hidden;whiteSpace=wrap;html=1;fontSize=16;" parent="Vo_5b4HXLnKSAwfz7YPH-43" vertex="1">
          <mxGeometry width="30" height="30" as="geometry">
            <mxRectangle width="30" height="30" as="alternateBounds" />
          </mxGeometry>
        </mxCell>
        <mxCell id="Vo_5b4HXLnKSAwfz7YPH-45" value="IsHoliday&lt;br&gt;" style="shape=partialRectangle;connectable=0;fillColor=none;top=0;left=0;bottom=0;right=0;align=left;spacingLeft=6;overflow=hidden;whiteSpace=wrap;html=1;fontSize=16;" parent="Vo_5b4HXLnKSAwfz7YPH-43" vertex="1">
          <mxGeometry x="30" width="150" height="30" as="geometry">
            <mxRectangle width="150" height="30" as="alternateBounds" />
          </mxGeometry>
        </mxCell>
        <mxCell id="Vo_5b4HXLnKSAwfz7YPH-27" value="Stores" style="shape=table;startSize=30;container=1;collapsible=1;childLayout=tableLayout;fixedRows=1;rowLines=0;fontStyle=1;align=center;resizeLast=1;html=1;fontSize=16;" parent="1" vertex="1">
          <mxGeometry x="314" y="550" width="180" height="140" as="geometry" />
        </mxCell>
        <mxCell id="Vo_5b4HXLnKSAwfz7YPH-28" value="" style="shape=tableRow;horizontal=0;startSize=0;swimlaneHead=0;swimlaneBody=0;fillColor=none;collapsible=0;dropTarget=0;points=[[0,0.5],[1,0.5]];portConstraint=eastwest;top=0;left=0;right=0;bottom=1;fontSize=16;" parent="Vo_5b4HXLnKSAwfz7YPH-27" vertex="1">
          <mxGeometry y="30" width="180" height="30" as="geometry" />
        </mxCell>
        <mxCell id="Vo_5b4HXLnKSAwfz7YPH-29" value="PK" style="shape=partialRectangle;connectable=0;fillColor=none;top=0;left=0;bottom=0;right=0;fontStyle=1;overflow=hidden;whiteSpace=wrap;html=1;fontSize=16;" parent="Vo_5b4HXLnKSAwfz7YPH-28" vertex="1">
          <mxGeometry width="30" height="30" as="geometry">
            <mxRectangle width="30" height="30" as="alternateBounds" />
          </mxGeometry>
        </mxCell>
        <mxCell id="Vo_5b4HXLnKSAwfz7YPH-30" value="StoreID" style="shape=partialRectangle;connectable=0;fillColor=none;top=0;left=0;bottom=0;right=0;align=left;spacingLeft=6;fontStyle=5;overflow=hidden;whiteSpace=wrap;html=1;fontSize=16;" parent="Vo_5b4HXLnKSAwfz7YPH-28" vertex="1">
          <mxGeometry x="30" width="150" height="30" as="geometry">
            <mxRectangle width="150" height="30" as="alternateBounds" />
          </mxGeometry>
        </mxCell>
        <mxCell id="Vo_5b4HXLnKSAwfz7YPH-31" value="" style="shape=tableRow;horizontal=0;startSize=0;swimlaneHead=0;swimlaneBody=0;fillColor=none;collapsible=0;dropTarget=0;points=[[0,0.5],[1,0.5]];portConstraint=eastwest;top=0;left=0;right=0;bottom=0;fontSize=16;" parent="Vo_5b4HXLnKSAwfz7YPH-27" vertex="1">
          <mxGeometry y="60" width="180" height="30" as="geometry" />
        </mxCell>
        <mxCell id="Vo_5b4HXLnKSAwfz7YPH-32" value="" style="shape=partialRectangle;connectable=0;fillColor=none;top=0;left=0;bottom=0;right=0;editable=1;overflow=hidden;whiteSpace=wrap;html=1;fontSize=16;" parent="Vo_5b4HXLnKSAwfz7YPH-31" vertex="1">
          <mxGeometry width="30" height="30" as="geometry">
            <mxRectangle width="30" height="30" as="alternateBounds" />
          </mxGeometry>
        </mxCell>
        <mxCell id="Vo_5b4HXLnKSAwfz7YPH-33" value="Type" style="shape=partialRectangle;connectable=0;fillColor=none;top=0;left=0;bottom=0;right=0;align=left;spacingLeft=6;overflow=hidden;whiteSpace=wrap;html=1;fontSize=16;" parent="Vo_5b4HXLnKSAwfz7YPH-31" vertex="1">
          <mxGeometry x="30" width="150" height="30" as="geometry">
            <mxRectangle width="150" height="30" as="alternateBounds" />
          </mxGeometry>
        </mxCell>
        <mxCell id="Vo_5b4HXLnKSAwfz7YPH-34" value="" style="shape=tableRow;horizontal=0;startSize=0;swimlaneHead=0;swimlaneBody=0;fillColor=none;collapsible=0;dropTarget=0;points=[[0,0.5],[1,0.5]];portConstraint=eastwest;top=0;left=0;right=0;bottom=0;fontSize=16;" parent="Vo_5b4HXLnKSAwfz7YPH-27" vertex="1">
          <mxGeometry y="90" width="180" height="30" as="geometry" />
        </mxCell>
        <mxCell id="Vo_5b4HXLnKSAwfz7YPH-35" value="" style="shape=partialRectangle;connectable=0;fillColor=none;top=0;left=0;bottom=0;right=0;editable=1;overflow=hidden;whiteSpace=wrap;html=1;fontSize=16;" parent="Vo_5b4HXLnKSAwfz7YPH-34" vertex="1">
          <mxGeometry width="30" height="30" as="geometry">
            <mxRectangle width="30" height="30" as="alternateBounds" />
          </mxGeometry>
        </mxCell>
        <mxCell id="Vo_5b4HXLnKSAwfz7YPH-36" value="Size" style="shape=partialRectangle;connectable=0;fillColor=none;top=0;left=0;bottom=0;right=0;align=left;spacingLeft=6;overflow=hidden;whiteSpace=wrap;html=1;fontSize=16;" parent="Vo_5b4HXLnKSAwfz7YPH-34" vertex="1">
          <mxGeometry x="30" width="150" height="30" as="geometry">
            <mxRectangle width="150" height="30" as="alternateBounds" />
          </mxGeometry>
        </mxCell>
        <mxCell id="Vo_5b4HXLnKSAwfz7YPH-37" value="" style="shape=tableRow;horizontal=0;startSize=0;swimlaneHead=0;swimlaneBody=0;fillColor=none;collapsible=0;dropTarget=0;points=[[0,0.5],[1,0.5]];portConstraint=eastwest;top=0;left=0;right=0;bottom=0;fontSize=16;" parent="Vo_5b4HXLnKSAwfz7YPH-27" vertex="1">
          <mxGeometry y="120" width="180" height="20" as="geometry" />
        </mxCell>
        <mxCell id="Vo_5b4HXLnKSAwfz7YPH-38" value="" style="shape=partialRectangle;connectable=0;fillColor=none;top=0;left=0;bottom=0;right=0;editable=1;overflow=hidden;whiteSpace=wrap;html=1;fontSize=16;" parent="Vo_5b4HXLnKSAwfz7YPH-37" vertex="1">
          <mxGeometry width="30" height="20" as="geometry">
            <mxRectangle width="30" height="20" as="alternateBounds" />
          </mxGeometry>
        </mxCell>
        <mxCell id="Vo_5b4HXLnKSAwfz7YPH-39" value="" style="shape=partialRectangle;connectable=0;fillColor=none;top=0;left=0;bottom=0;right=0;align=left;spacingLeft=6;overflow=hidden;whiteSpace=wrap;html=1;fontSize=16;" parent="Vo_5b4HXLnKSAwfz7YPH-37" vertex="1">
          <mxGeometry x="30" width="150" height="20" as="geometry">
            <mxRectangle width="150" height="20" as="alternateBounds" />
          </mxGeometry>
        </mxCell>
        <mxCell id="Vo_5b4HXLnKSAwfz7YPH-62" value="" style="edgeStyle=entityRelationEdgeStyle;fontSize=12;html=1;endArrow=ERoneToMany;rounded=0;startSize=8;endSize=8;curved=1;entryX=1;entryY=0.5;entryDx=0;entryDy=0;exitX=0;exitY=0.5;exitDx=0;exitDy=0;" parent="1" source="Vo_5b4HXLnKSAwfz7YPH-28" target="Vo_5b4HXLnKSAwfz7YPH-18" edge="1">
          <mxGeometry width="100" height="100" relative="1" as="geometry">
            <mxPoint x="310" y="740" as="sourcePoint" />
            <mxPoint x="410" y="890" as="targetPoint" />
          </mxGeometry>
        </mxCell>
        <mxCell id="Vo_5b4HXLnKSAwfz7YPH-63" value="" style="edgeStyle=entityRelationEdgeStyle;fontSize=12;html=1;endArrow=ERoneToMany;rounded=0;startSize=8;endSize=8;curved=1;entryX=0;entryY=0.5;entryDx=0;entryDy=0;" parent="1" target="Vo_5b4HXLnKSAwfz7YPH-2" edge="1">
          <mxGeometry width="100" height="100" relative="1" as="geometry">
            <mxPoint x="500" y="600" as="sourcePoint" />
            <mxPoint x="610" y="630" as="targetPoint" />
          </mxGeometry>
        </mxCell>
      </root>
    </mxGraphModel>
  </diagram>
</mxfile>
